<svg xmlns="http://www.w3.org/2000/svg" viewBox="17 45 50 65" width="200" height="200">
    <title>Logotipo Valhalla blanco</title>
    <path d="M48.33,60.8s0,0,0,0a7.23,7.23,0,0,0-12.66,0s0,0,0,0a7.23,7.23,0,0,1,12.68,0Z" style="fill:#fff"/>
    <path d="M49.05,57.7a7,7,0,0,1-.41,2.38,7.2,7.2,0,0,0-13.3,0,7,7,0,0,1-.41-2.38,2.71,2.71,0,0,1,0-.29v-.08c0-.07,0-.14,0-.21v0l0-.26a0,0,0,0,1,0,0l0-.23v0s0,0,0,0,0-.09,0-.13a.52.52,0,0,0,0-.11l0-.11.06-.27a.93.93,0,0,1,0-.13s0-.1,0-.15l.12-.35c0-.09.07-.19.11-.28a2.14,2.14,0,0,1,.1-.22l.06-.13.06-.12.07-.15.08-.13.08-.15a8,8,0,0,1,.51-.74l.21-.26,0,0,.1-.11L37,52.7l.12-.12.12-.11.26-.22.13-.11.12-.09,0,0,.1-.08.28-.19.15-.09.33-.19.19-.1.39-.18.12,0,.33-.12.2-.07.24-.07h0l.78,2.22,1-.34L42,53.87l1.15-.41L43.62,55l.29-2.59-1,.41v-1.3l-1,.45,0-1.28h.7l.23,0c.24,0,.48.06.71.11l.22,0,.2.05.24.07.39.13.12.05a5.38,5.38,0,0,1,.55.24l.19.1a7,7,0,0,1,1.07.7l.09.08a7.09,7.09,0,0,1,.79.76l.11.13.06.07a1.71,1.71,0,0,1,.11.14c.05,0,.09.11.14.17a2.14,2.14,0,0,0,.13.19l.12.18h0l.12.2s0,.09.08.14,0,.09.08.14.05.09.07.14l.08.15c0,.09.08.19.13.29l.18.47a1.42,1.42,0,0,0,0,.16s0,0,0,.05a.93.93,0,0,1,0,.13c0,.1.06.2.08.3a1.24,1.24,0,0,0,0,.16l0,.17,0,.16c0,.09,0,.19,0,.28l0,.29c0,.07,0,.14,0,.21v.08A2.71,2.71,0,0,1,49.05,57.7Z" style="fill:#fff"/>
    <path d="M48.33,60.8s0,0,0,0a7.23,7.23,0,0,0-12.66,0s0,0,0,0a7.23,7.23,0,0,1,12.68,0Z" style="fill:#fff"/>
    <path d="M48.64,61a6.26,6.26,0,0,1-.32.75,7.23,7.23,0,0,0-12.66,0,6.26,6.26,0,0,1-.32-.75,6.07,6.07,0,0,1,.31-.69,7.23,7.23,0,0,1,12.68,0A6.07,6.07,0,0,1,48.64,61Z" style="fill:#fff"/>
    <path d="M54,51.44a5.21,5.21,0,0,1-4.16,5.11,6.74,6.74,0,0,0-.9-2.46,5.23,5.23,0,0,0,3.64-5,5,5,0,0,0-.21-1.45A5.16,5.16,0,0,1,54,51.44Z" style="fill:#fff"/>
    <path d="M35.09,54.08a6.81,6.81,0,0,0-.9,2.46,5.21,5.21,0,0,1-2.51-8.88,5,5,0,0,0-.21,1.45A5.21,5.21,0,0,0,35.09,54.08Z" style="fill:#fff"/>
    <path d="M49.05,57.7a7,7,0,0,1-.41,2.38,7.2,7.2,0,0,0-13.3,0,7,7,0,0,1-.41-2.38,2.71,2.71,0,0,1,0-.29v-.08c0-.07,0-.14,0-.21v0l0-.26a0,0,0,0,1,0,0l0-.23v0s0,0,0,0,0-.09,0-.13a.52.52,0,0,0,0-.11l0-.11.06-.27a.93.93,0,0,1,0-.13s0-.1,0-.15l.12-.35c0-.09.07-.19.11-.28a2.14,2.14,0,0,1,.1-.22l.06-.13.06-.12.07-.15.08-.13.08-.15a8,8,0,0,1,.51-.74l.21-.26,0,0,.1-.11L37,52.7l.12-.12.12-.11.26-.22.13-.11.12-.09,0,0,.1-.08.28-.19.15-.09.33-.19.19-.1.39-.18.12,0,.33-.12.2-.07.24-.07h0l.78,2.22,1-.34L42,53.87l1.15-.41L43.62,55l.29-2.59-1,.41v-1.3l-1,.45,0-1.28h.7l.23,0c.24,0,.48.06.71.11l.22,0,.2.05.24.07.39.13.12.05a5.38,5.38,0,0,1,.55.24l.19.1a7,7,0,0,1,1.07.7l.09.08a7.09,7.09,0,0,1,.79.76l.11.13.06.07a1.71,1.71,0,0,1,.11.14c.05,0,.09.11.14.17a2.14,2.14,0,0,0,.13.19l.12.18h0l.12.2s0,.09.08.14,0,.09.08.14.05.09.07.14l.08.15c0,.09.08.19.13.29l.18.47a1.42,1.42,0,0,0,0,.16s0,0,0,.05a.93.93,0,0,1,0,.13c0,.1.06.2.08.3a1.24,1.24,0,0,0,0,.16l0,.17,0,.16c0,.09,0,.19,0,.28l0,.29c0,.07,0,.14,0,.21v.08A2.71,2.71,0,0,1,49.05,57.7Z" style="fill:#fff"/>
    <path d="M46.33,73.84A1.83,1.83,0,0,0,45.92,75a1.94,1.94,0,0,0,.8,1.53,7.4,7.4,0,0,1-2.24.33,7,7,0,0,1-5.1-2.07,5.45,5.45,0,0,1-3.87-4.93c0-3,2.9-5.38,6.48-5.38a7,7,0,0,1,5.11,2.07A4.69,4.69,0,0,1,47,73.28,2.31,2.31,0,0,0,46.33,73.84Z" style="fill:#fff"/>
    <path d="M54.05,63.49c0,1.77-2.15,3.25-5,3.58a11.14,11.14,0,0,1-1.17.07c-2.67,0-4.94-1-5.8-2.41.52-1,2.07-1.7,3.91-1.7a6,6,0,0,1,2.71.6,2.44,2.44,0,0,0,.45.27h0a4.18,4.18,0,0,0,1.85.4c1.53,0,2.79-.7,2.9-1.59A2.29,2.29,0,0,1,54.05,63.49Z" style="fill:#fff"/>
    <path d="M30.2,63.49c0,1.77,2.14,3.25,5,3.58a11.14,11.14,0,0,0,1.17.07c2.67,0,4.94-1,5.8-2.41-.52-1-2.08-1.7-3.92-1.7a6,6,0,0,0-2.7.6,2.44,2.44,0,0,1-.45.27h0a4.21,4.21,0,0,1-1.85.4c-1.54,0-2.79-.7-2.9-1.59A2.07,2.07,0,0,0,30.2,63.49Z" style="fill:#fff"/>
    <path d="M42.88,52.77l1-.41L43.62,55l-.43-1.5L42,53.86l-.15-1.11-1,.34-.78-2.21h0a7.81,7.81,0,0,1,1.61-.23l0,1.28,1-.45" style="fill:#fff"/>
    <path d="M49.71,82.34l-1.19.81a1.35,1.35,0,0,1-1.58,0,1.07,1.07,0,0,1-.28.28L34.78,91.53a1.07,1.07,0,0,1-1.34-.11l-3.66,2.51a1,1,0,0,1-1.33-.25,1,1,0,0,1,.25-1.33l3.66-2.51a1.06,1.06,0,0,1,.38-1.29l11.88-8.14a1,1,0,0,1,.33-.15,1.35,1.35,0,0,1,.51-1.58l1.18-.81a1.35,1.35,0,0,1,1.89.35l.21.3,7.83-5.37a.53.53,0,0,1,.68.07L60,72a.09.09,0,0,1,.1.15l-2.21,2a.54.54,0,0,1-.15.74l-7.83,5.36.15.22A1.37,1.37,0,0,1,49.71,82.34Z" style="fill:#fff"/>
    <path d="M34.37,82.34l1.18.81a1.37,1.37,0,0,0,1.59,0,.93.93,0,0,0,.28.28L49.3,91.53a1.07,1.07,0,0,0,1.34-.11l3.65,2.51a1,1,0,0,0,1.09-1.58l-3.66-2.51a1.07,1.07,0,0,0-.38-1.29L39.46,80.41a1.14,1.14,0,0,0-.34-.15,1.34,1.34,0,0,0-.5-1.58l-1.19-.81a1.34,1.34,0,0,0-1.88.35l-.21.3-7.83-5.37a.54.54,0,0,0-.69.07L24.08,72a.09.09,0,0,0-.1.15l2.21,2a.54.54,0,0,0,.14.74l7.84,5.36-.15.22A1.36,1.36,0,0,0,34.37,82.34Z" style="fill:#fff"/>
    <path d="M15.51,97.94h2.15c.05,0,.07,0,.07.07v7s.26.24.76.64a5.1,5.1,0,0,0,.8-.64V98a.06.06,0,0,1,.07-.07h2.15s.08,0,.08.07v7.75c-.17.17-1.19.89-3.06,2.15h0c-1.88-1.27-2.9-2-3.06-2.15V98C15.44,98,15.46,97.94,15.51,97.94Z" style="fill:#fff"/>
    <path d="M25.24,98h0c1.84,1.25,2.86,2,3.07,2.16v7.73s0,.07-.07.07H26.11c-.05,0-.08,0-.08-.07v-1.67H24.48v1.67s0,.07-.08.07H22.24s-.07,0-.07-.07v-7.73C22.32,100,23.34,99.26,25.24,98Zm-.76,3v3.34H26v-3.37a9,9,0,0,0-.76-.65A4.9,4.9,0,0,0,24.48,100.9Z" style="fill:#fff"/>
    <path d="M29.05,97.92h2.21s.08,0,.08.07v7.84h.82l1.07-.75c1,.72,1.59,1.11,1.73,1.18v.08a15.48,15.48,0,0,1-2.32,1.57H29.05c-.05,0-.07,0-.07-.07V98S29,97.92,29.05,97.92Z" style="fill:#fff"/>
    <path d="M35.46,97.93h2.25a.08.08,0,0,1,.07.08v6h1.65V98a.09.09,0,0,1,.09-.08h2.2a.08.08,0,0,1,.07.08v9.83s0,.07-.07.07h-2.2c-.06,0-.09,0-.09-.07V106.1H37.78v1.74s0,.07-.07.07H35.46c-.05,0-.07,0-.07-.07v-4.29a5.83,5.83,0,0,1,0-.63s0-.14,0-.43v-.31s0,0,0,0l0-.08V98C35.4,98,35.42,97.93,35.46,97.93Z" style="fill:#fff"/>
    <path d="M45.45,98h0c1.83,1.25,2.86,2,3.07,2.16v7.73s0,.07-.08.07H46.32s-.07,0-.07-.07v-1.67H44.7v1.67s0,.07-.08.07H42.46c-.05,0-.08,0-.08-.07v-7.73C42.54,100,43.56,99.26,45.45,98Zm-.75,3v3.34h1.55v-3.37s-.26-.24-.76-.65A4.48,4.48,0,0,0,44.7,100.9Z" style="fill:#fff"/>
    <path d="M49.27,97.92h2.21c.05,0,.07,0,.07.07v7.84h.83l1.07-.75c1,.72,1.58,1.11,1.72,1.18v.08a15.15,15.15,0,0,1-2.31,1.57H49.27c-.05,0-.08,0-.08-.07V98A.08.08,0,0,1,49.27,97.92Z" style="fill:#fff"/>
    <path d="M55.82,97.92H58s.07,0,.07.07v7.84h.83l1.07-.75c1,.72,1.58,1.11,1.72,1.18v.08a15.15,15.15,0,0,1-2.31,1.57H55.82s-.08,0-.08-.07V98A.08.08,0,0,1,55.82,97.92Z" style="fill:#fff"/>
    <path d="M65.3,98h0c1.83,1.25,2.86,2,3.07,2.16v7.73s0,.07-.08.07H66.17c-.06,0-.08,0-.08-.07v-1.67H64.54v1.67s0,.07-.08.07H62.3s-.07,0-.07-.07v-7.73C62.38,100,63.4,99.26,65.3,98Zm-.76,3v3.34h1.55v-3.37s-.26-.24-.76-.65A4.9,4.9,0,0,0,64.54,100.9Z" style="fill:#fff"/>
</svg>