<svg xmlns="http://www.w3.org/2000/svg" xmlns:xlink="http://www.w3.org/1999/xlink" viewBox="20 45 120 120" width="200" height="200"> 
    <defs>
        <linearGradient id="a" x1="-154.33" y1="201.58" x2="-154.33" y2="208.68" gradientTransform="translate(377.12 235.06) rotate(90)" gradientUnits="userSpaceOnUse">
            <stop offset="0.07" stop-color="#fff"/>
            <stop offset="0.16" stop-color="#fafafa"/>
            <stop offset="0.28" stop-color="#ebebeb"/>
            <stop offset="0.4" stop-color="#d2d2d2"/>
            <stop offset="0.54" stop-color="#afafaf"/>
            <stop offset="0.68" stop-color="#828282"/>
            <stop offset="0.83" stop-color="#4b4b4b"/>
            <stop offset="0.97" stop-color="#0c0c0c"/>
            <stop offset="1"/>
        </linearGradient>
        <linearGradient id="b" x1="-154.33" y1="189.54" x2="-154.33" y2="207.27" xlink:href="#a"/>
        <linearGradient id="d" x1="-154.33" y1="200.57" x2="-154.33" y2="210.32" xlink:href="#a"/>
        <linearGradient id="e" x1="-136.62" y1="183.95" x2="-136.62" y2="200.65" xlink:href="#a"/>
        <linearGradient id="f" x1="-172.02" y1="183.95" x2="-172.02" y2="200.64" xlink:href="#a"/>
        <linearGradient id="h" x1="-154.33" y1="215.49" x2="-154.33" y2="238.75" xlink:href="#a"/>
        <linearGradient id="i" x1="-142.91" y1="212.21" x2="-142.91" y2="220.52" xlink:href="#a"/>
        <linearGradient id="j" x1="-165.25" y1="212.21" x2="-165.25" y2="220.52" xlink:href="#a"/>
        <linearGradient id="k" x1="-154.24" y1="189.55" x2="-154.24" y2="197.65" xlink:href="#a"/>
        <linearGradient id="l" x1="-150.14" y1="229.54" x2="-150.14" y2="271.14" xlink:href="#a"/>
        <linearGradient id="m" x1="-158.29" y1="229.54" x2="-158.29" y2="271.14" xlink:href="#a"/>
        <linearGradient id="n" x1="-198.41" y1="278.36" x2="-198.41" y2="297.09" xlink:href="#a"/>
        <linearGradient id="o" x1="-185.74" y1="278.38" x2="-185.74" y2="297.09" xlink:href="#a"/>
        <linearGradient id="p" x1="-173.14" y1="278.32" x2="-173.14" y2="297.09" xlink:href="#a"/>
        <linearGradient id="q" x1="-160.7" y1="278.35" x2="-160.7" y2="297.09" xlink:href="#a"/>
        <linearGradient id="r" x1="-147.78" y1="278.38" x2="-147.78" y2="297.09" xlink:href="#a"/>
        <linearGradient id="s" x1="-135.18" y1="278.32" x2="-135.18" y2="297.09" xlink:href="#a"/>
        <linearGradient id="t" x1="-122.88" y1="278.32" x2="-122.88" y2="297.09" xlink:href="#a"/>
        <linearGradient id="u" x1="-110.53" y1="278.38" x2="-110.53" y2="297.09" xlink:href="#a"/>
        <linearGradient id="v" x1="-154.46" y1="300.24" x2="-154.46" y2="302.98" gradientTransform="translate(377.12 235.06) rotate(90)" gradientUnits="userSpaceOnUse">
            <stop offset="0.07" stop-color="#fff"/>
            <stop offset="0.28" stop-color="#bbb"/>
            <stop offset="0.54" stop-color="#6c6c6c"/>
            <stop offset="0.76" stop-color="#323232"/>
            <stop offset="0.92" stop-color="#0e0e0e"/>
            <stop offset="1"/>
        </linearGradient>
    </defs>
    <title>Valhalla Logo</title>
    <g style="isolation:isolate" transform="translate(-42.515, 42.515) rotate(-90 120.47 77.955)">
        <path d="M168.49,92.65l-.05,0a13.57,13.57,0,0,0,0-23.76l.05,0a13.58,13.58,0,0,1,0,23.82Z" style="fill:#211915"/>
        <path d="M174.32,94a13,13,0,0,1-4.47-.78,13.51,13.51,0,0,0,0-25,13.25,13.25,0,0,1,4.47-.78l.55,0H175l.39,0h.06l.5,0h0l.42.06h.12l.25,0,.21.05.19,0a4.87,4.87,0,0,1,.52.12L178,68l.29.08.66.22.52.21c.14,0,.28.12.42.18l.23.11.24.12.27.14.25.14.28.16a12.37,12.37,0,0,1,1.4,1l.47.39s0,0,0,0l.22.19.46.44.22.22.22.24c.14.15.28.32.41.48a2.43,2.43,0,0,1,.2.25l.17.22.07.09a1.43,1.43,0,0,1,.14.2,6.18,6.18,0,0,1,.36.53c.06.08.11.17.17.26s.24.42.35.63a3,3,0,0,1,.19.36c.12.24.23.48.34.73l.09.22c.08.2.16.41.23.62l.12.38c.05.15.1.3.14.45s0,0,0,.06L183,78.77l.64,1.78-2.1.29.77,2.15-2.8.81,4.86.55-.77-1.94,2.44,0-.84-2,2.4-.1v0c0,.13,0,.26,0,.39s0,.26,0,.39v.26c0,.08,0,.17,0,.25s0,.3,0,.44a11.85,11.85,0,0,1-.2,1.33l-.09.41-.09.37c0,.16-.09.31-.14.46s-.16.49-.25.73a2,2,0,0,1-.08.22c-.14.35-.29.7-.46,1L186,87a13,13,0,0,1-1.33,2,1.15,1.15,0,0,1-.14.17,13.5,13.5,0,0,1-1.44,1.49l-.24.21-.12.1-.26.21-.33.26-.35.24-.34.23h0l-.36.23-.26.15-.27.15-.27.14-.28.13-.54.25c-.29.12-.58.23-.88.33l-.3.1-.1,0-.25.07c-.18.06-.36.1-.55.15l-.3.07-.33.06-.3,0-.52.08-.54,0-.4,0h-.69Z" style="fill:#211915"/>
        <path d="M168.49,92.65l-.05,0a13.57,13.57,0,0,0,0-23.76l.05,0a13.58,13.58,0,0,1,0,23.82Z" style="fill:#211915"/>
        <path d="M168.21,93.22a11.56,11.56,0,0,1-1.4-.6,13.57,13.57,0,0,0,0-23.76,11.56,11.56,0,0,1,1.4-.6q.66.26,1.29.57a13.58,13.58,0,0,1,0,23.82A12.33,12.33,0,0,1,168.21,93.22Z" style="fill:#885c4c"/>
        <path d="M186.06,103.2a9.8,9.8,0,0,1-9.59-7.81,13.2,13.2,0,0,0,4.63-1.69,9.79,9.79,0,0,0,9.34,6.83,9.89,9.89,0,0,0,2.73-.38A9.78,9.78,0,0,1,186.06,103.2Z" style="fill:#885c4c"/>
        <path d="M181.11,67.79a13,13,0,0,0-4.63-1.7,9.79,9.79,0,0,1,16.69-4.71,9.53,9.53,0,0,0-2.73-.39A9.79,9.79,0,0,0,181.11,67.79Z" style="fill:#885c4c"/>
        <path d="M174.32,94a13,13,0,0,1-4.47-.78,13.51,13.51,0,0,0,0-25,13.25,13.25,0,0,1,4.47-.78l.55,0H175l.39,0h.06l.5,0h0l.42.06h.12l.25,0,.21.05.19,0a4.87,4.87,0,0,1,.52.12L178,68l.29.08.66.22.52.21c.14,0,.28.12.42.18l.23.11.24.12.27.14.25.14.28.16a12.37,12.37,0,0,1,1.4,1l.47.39s0,0,0,0l.22.19.46.44.22.22.22.24c.14.15.28.32.41.48a2.43,2.43,0,0,1,.2.25l.17.22.07.09a1.43,1.43,0,0,1,.14.2,6.18,6.18,0,0,1,.36.53c.06.08.11.17.17.26s.24.42.35.63a3,3,0,0,1,.19.36c.12.24.23.48.34.73l.09.22c.08.2.16.41.23.62l.12.38c.05.15.1.3.14.45s0,0,0,.06L183,78.77l.64,1.78-2.1.29.77,2.15-2.8.81,4.86.55-.77-1.94,2.44,0-.84-2,2.4-.1v0c0,.13,0,.26,0,.39s0,.26,0,.39v.26c0,.08,0,.17,0,.25s0,.3,0,.44a11.85,11.85,0,0,1-.2,1.33l-.09.41-.09.37c0,.16-.09.31-.14.46s-.16.49-.25.73a2,2,0,0,1-.08.22c-.14.35-.29.7-.46,1L186,87a13,13,0,0,1-1.33,2,1.15,1.15,0,0,1-.14.17,13.5,13.5,0,0,1-1.44,1.49l-.24.21-.12.1-.26.21-.33.26-.35.24-.34.23h0l-.36.23-.26.15-.27.15-.27.14-.28.13-.54.25c-.29.12-.58.23-.88.33l-.3.1-.1,0-.25.07c-.18.06-.36.1-.55.15l-.3.07-.33.06-.3,0-.52.08-.54,0-.4,0h-.69Z" style="fill:#d2a670"/>
        <path d="M144,88.89a3.4,3.4,0,0,0-2.14-.77A3.65,3.65,0,0,0,139,89.63a14.41,14.41,0,0,1-.62-4.2,13.15,13.15,0,0,1,3.89-9.59c1.56-4.28,5.12-7.26,9.26-7.26,5.58,0,10.11,5.44,10.11,12.16a13.16,13.16,0,0,1-3.89,9.59,8.83,8.83,0,0,1-12.68-.23A4.25,4.25,0,0,0,144,88.89Z" style="fill:#0b1824"/>
        <path d="M163.45,103.39c-3.34,0-6.12-4-6.73-9.38a19.73,19.73,0,0,1-.12-2.2c0-5,1.88-9.26,4.51-10.88,1.85,1,3.2,3.89,3.2,7.35a11.21,11.21,0,0,1-1.13,5.08,4.57,4.57,0,0,0-.51.84h0a8,8,0,0,0-.73,3.47c0,2.89,1.31,5.24,3,5.45A4.16,4.16,0,0,1,163.45,103.39Z" style="fill:#415d6e"/>
        <path d="M163.45,58.6c-3.34,0-6.12,4-6.73,9.37a19.73,19.73,0,0,0-.12,2.2c0,5,1.88,9.27,4.51,10.88,1.85-1,3.2-3.89,3.2-7.34a11.28,11.28,0,0,0-1.13-5.09,4.48,4.48,0,0,1-.51-.83h0a8.08,8.08,0,0,1-.73-3.48c0-2.88,1.31-5.24,3-5.45A4.38,4.38,0,0,0,163.45,58.6Z" style="fill:#415d6e"/>
        <path d="M183.57,82.41l.77,1.94-4.86-.55,2.81-.81-.77-2.15,2.09-.29L183,78.77l4.16-1.46h0a13.11,13.11,0,0,1,.44,3l-2.4.1.85,2" style="fill:#415d6e"/>
        <path d="M128.06,95.23,126.53,93a2.57,2.57,0,0,1,.07-3,2,2,0,0,1-.53-.52L110.79,67.2a2,2,0,0,1,.21-2.51l-4.7-6.87a1.79,1.79,0,1,1,3-2L114,62.66a2,2,0,0,1,2.42.71l15.28,22.3a2,2,0,0,1,.29.63,2.54,2.54,0,0,1,3,1l1.52,2.23a2.53,2.53,0,0,1-.66,3.53l-.57.4,10.08,14.71a1,1,0,0,1-.13,1.28l2.39,5.15a.17.17,0,0,1-.28.19l-3.82-4.15a1,1,0,0,1-1.38-.27L132,95.61l-.4.28A2.55,2.55,0,0,1,128.06,95.23Z" style="fill:#d2a670"/>
        <path d="M128.06,66.44l-1.53,2.22a2.55,2.55,0,0,0,.07,3,2,2,0,0,0-.53.52L110.79,94.46A2,2,0,0,0,111,97l-4.7,6.86a1.79,1.79,0,1,0,3,2L114,99a2,2,0,0,0,2.42-.71L131.67,76a2,2,0,0,0,.29-.63,2.54,2.54,0,0,0,3-1l1.52-2.22a2.54,2.54,0,0,0-.66-3.54l-.57-.39L145.3,53.54a1,1,0,0,0-.13-1.28l2.39-5.14a.17.17,0,0,0-.28-.2l-3.82,4.15a1,1,0,0,0-1.38.27L132,66.05l-.4-.28A2.55,2.55,0,0,0,128.06,66.44Z" style="fill:#885c4c"/>
        <path d="M98.77,31v4q0,.15-.15.15H85.5s-.44.49-1.2,1.42a9.52,9.52,0,0,0,1.2,1.49H98.62c.1,0,.15.06.15.14v4q0,.15-.15.15H84.07q-.46-.48-4-5.75v-.07q3.59-5.29,4-5.75H98.62C98.72,30.89,98.77,30.93,98.77,31Z" style="fill:#415d6e"/>
        <path d="M98.74,49.29v.06c-2.35,3.44-3.7,5.37-4,5.77H80.18A.13.13,0,0,1,80,55v-4c0-.09,0-.14.15-.14H83.3V47.86H80.18c-.1,0-.15,0-.15-.14v-4a.13.13,0,0,1,.15-.15H94.69Q95.05,44,98.74,49.29ZM93.2,47.86H86.94v2.92h6.32s.44-.49,1.22-1.43A8.56,8.56,0,0,0,93.2,47.86Z" style="fill:#415d6e"/>
        <path d="M98.8,56.45v4.14c0,.1-.06.15-.14.15H84v1.55l1.39,2q-2,2.85-2.22,3.24H83a29,29,0,0,1-3-4.35V56.45c0-.1,0-.14.15-.14H98.66C98.76,56.32,98.8,56.37,98.8,56.45Z" style="fill:#415d6e"/>
        <path d="M98.78,68.49V72.7a.15.15,0,0,1-.16.14H87.26v3.1H98.62c.11,0,.16.07.16.16v4.13a.15.15,0,0,1-.16.14H80.18c-.1,0-.15-.05-.15-.14V76.1c0-.11,0-.16.15-.16h3.25v-3.1H80.18c-.1,0-.15,0-.15-.14V68.49c0-.1,0-.14.15-.14h8c.28,0,.67,0,1.18.07,0,0,.27-.07.81-.07h.58c.06,0,.08,0,.08.07l.15-.07h7.59C98.73,68.36,98.78,68.41,98.78,68.49Z" style="fill:#415d6e"/>
        <path d="M98.74,87.25v.06c-2.35,3.44-3.7,5.37-4,5.77H80.18a.13.13,0,0,1-.15-.15V88.88c0-.1,0-.14.15-.14H83.3V85.82H80.18c-.1,0-.15,0-.15-.14V81.63a.13.13,0,0,1,.15-.15H94.69Q95.05,81.91,98.74,87.25ZM93.2,85.82H86.94v2.92h6.32s.44-.49,1.22-1.43A8.56,8.56,0,0,0,93.2,85.82Z" style="fill:#415d6e"/>
        <path d="M98.8,94.41v4.14c0,.1-.06.15-.14.15H84v1.55l1.39,2q-2,2.85-2.22,3.24H83a29,29,0,0,1-3-4.35V94.41c0-.1,0-.14.15-.14H98.66C98.76,94.28,98.8,94.33,98.8,94.41Z" style="fill:#415d6e"/>
        <path d="M98.8,106.71v4.14c0,.1-.06.15-.14.15H84v1.55l1.39,2q-2,2.85-2.22,3.24H83a29,29,0,0,1-3-4.35v-6.73c0-.1,0-.14.15-.14H98.66C98.76,106.58,98.8,106.63,98.8,106.71Z" style="fill:#415d6e"/>
        <path d="M98.74,124.5v.06q-3.52,5.17-4,5.77H80.18c-.1,0-.15-.05-.15-.14v-4.06c0-.09,0-.14.15-.14H83.3v-2.92H80.18c-.1,0-.15,0-.15-.14v-4.05c0-.1,0-.14.15-.14H94.69Q95.05,119.16,98.74,124.5Zm-5.54-1.43H86.94V126h6.32s.44-.48,1.22-1.43A9,9,0,0,0,93.2,123.07Z" style="fill:#415d6e"/>
        <g style="opacity:0.62;mix-blend-mode:multiply">
            <path d="M168.49,92.64l-.05,0a13.57,13.57,0,0,0,0-23.76l.05,0a13.58,13.58,0,0,1,0,23.82Z" style="fill:url(#a)"/>
            <path d="M174.32,94a13.25,13.25,0,0,1-4.47-.78,13.51,13.51,0,0,0,0-25,13,13,0,0,1,4.47-.78H175l.39,0h.06l.5,0h0c.14,0,.28,0,.42.06h.12l.25,0,.21,0,.19,0,.52.13L178,68l.29.08.66.22c.17.07.35.13.52.21a3.79,3.79,0,0,1,.42.18l.23.11.24.12.27.14a2,2,0,0,1,.25.14l.28.16a12.37,12.37,0,0,1,1.4,1l.47.39,0,0,.22.2.46.43.22.23a2.39,2.39,0,0,0,.22.23c.14.16.28.32.41.49l.2.24.17.22.07.09.14.2c.13.18.25.36.36.53l.17.27c.12.21.24.41.35.62s.13.24.19.36.23.49.34.74l.09.22c.08.2.16.41.23.62l.12.37c.05.15.1.31.14.46s0,0,0,.06L183,78.76l.64,1.78-2.1.29.77,2.15-2.8.81,4.86.55-.77-1.94,2.44,0-.84-2,2.4-.09v0c0,.12,0,.26,0,.39s0,.26,0,.39v.26c0,.08,0,.16,0,.25s0,.29,0,.44a11.85,11.85,0,0,1-.2,1.33l-.09.41-.09.37c0,.15-.09.31-.14.46s-.16.49-.25.73a2,2,0,0,1-.08.22c-.14.35-.29.7-.46,1L186,87a13,13,0,0,1-1.33,2,2.09,2.09,0,0,1-.14.17,13.5,13.5,0,0,1-1.44,1.49l-.24.21-.12.1-.26.21-.33.26-.35.24-.34.23h0l-.36.22-.26.16-.27.14-.27.14-.28.14c-.18.08-.35.17-.54.24a9.4,9.4,0,0,1-.88.34l-.3.1-.1,0-.25.07c-.18.06-.36.1-.55.15l-.3.07-.33.06-.3,0-.52.08-.54,0-.4,0h-.14Z" style="fill:url(#b)"/>
            <path d="M168.49,92.64l-.05,0a13.57,13.57,0,0,0,0-23.76l.05,0a13.58,13.58,0,0,1,0,23.82Z" style="fill:url(#a)"/>
            <path d="M168.21,93.21a11.56,11.56,0,0,1-1.4-.6,13.57,13.57,0,0,0,0-23.76,11.56,11.56,0,0,1,1.4-.6,10.54,10.54,0,0,1,1.29.57,13.58,13.58,0,0,1,0,23.82Q168.87,93,168.21,93.21Z" style="fill:url(#d)"/>
            <path d="M186.06,103.19a9.8,9.8,0,0,1-9.59-7.81,13.2,13.2,0,0,0,4.63-1.69,9.79,9.79,0,0,0,9.34,6.83,9.53,9.53,0,0,0,2.73-.39A9.75,9.75,0,0,1,186.06,103.19Z" style="fill:url(#e)"/>
            <path d="M181.11,67.77a13.13,13.13,0,0,0-4.63-1.69,9.8,9.8,0,0,1,16.69-4.72,9.84,9.84,0,0,0-12.06,6.41Z" style="fill:url(#f)"/>
            <path d="M174.32,94a13.25,13.25,0,0,1-4.47-.78,13.51,13.51,0,0,0,0-25,13,13,0,0,1,4.47-.78H175l.39,0h.06l.5,0h0c.14,0,.28,0,.42.06h.12l.25,0,.21,0,.19,0,.52.13L178,68l.29.08.66.22c.17.07.35.13.52.21a3.79,3.79,0,0,1,.42.18l.23.11.24.12.27.14a2,2,0,0,1,.25.14l.28.16a12.37,12.37,0,0,1,1.4,1l.47.39,0,0,.22.2.46.43.22.23a2.39,2.39,0,0,0,.22.23c.14.16.28.32.41.49l.2.24.17.22.07.09.14.2c.13.18.25.36.36.53l.17.27c.12.21.24.41.35.62s.13.24.19.36.23.49.34.74l.09.22c.08.2.16.41.23.62l.12.37c.05.15.1.31.14.46s0,0,0,.06L183,78.76l.64,1.78-2.1.29.77,2.15-2.8.81,4.86.55-.77-1.94,2.44,0-.84-2,2.4-.09v0c0,.12,0,.26,0,.39s0,.26,0,.39v.26c0,.08,0,.16,0,.25s0,.29,0,.44a11.85,11.85,0,0,1-.2,1.33l-.09.41-.09.37c0,.15-.09.31-.14.46s-.16.49-.25.73a2,2,0,0,1-.08.22c-.14.35-.29.7-.46,1L186,87a13,13,0,0,1-1.33,2,2.09,2.09,0,0,1-.14.17,13.5,13.5,0,0,1-1.44,1.49l-.24.21-.12.1-.26.21-.33.26-.35.24-.34.23h0l-.36.22-.26.16-.27.14-.27.14-.28.14c-.18.08-.35.17-.54.24a9.4,9.4,0,0,1-.88.34l-.3.1-.1,0-.25.07c-.18.06-.36.1-.55.15l-.3.07-.33.06-.3,0-.52.08-.54,0-.4,0h-.14Z" style="fill:url(#b)"/>
            <path d="M144,88.88a3.4,3.4,0,0,0-2.14-.77A3.65,3.65,0,0,0,139,89.62a14.43,14.43,0,0,1-.62-4.21,13.12,13.12,0,0,1,3.89-9.58c1.56-4.28,5.12-7.26,9.26-7.26,5.58,0,10.11,5.44,10.11,12.16a13.12,13.12,0,0,1-3.89,9.58,8.82,8.82,0,0,1-12.68-.22A4.25,4.25,0,0,0,144,88.88Z" style="fill:url(#h)"/>
            <path d="M163.45,103.38c-3.34,0-6.12-4-6.73-9.38a19.73,19.73,0,0,1-.12-2.2c0-5,1.88-9.27,4.51-10.88,1.85,1,3.2,3.89,3.2,7.35a11.27,11.27,0,0,1-1.13,5.08,4.84,4.84,0,0,0-.51.83h0a8,8,0,0,0-.73,3.47c0,2.88,1.31,5.24,3,5.45A4.16,4.16,0,0,1,163.45,103.38Z" style="fill:url(#i)"/>
            <path d="M163.45,58.58c-3.34,0-6.12,4-6.73,9.38a19.73,19.73,0,0,0-.12,2.2c0,5,1.88,9.27,4.51,10.88,1.85-1,3.2-3.89,3.2-7.35a11.27,11.27,0,0,0-1.13-5.08,4.48,4.48,0,0,1-.51-.83h0a8,8,0,0,1-.73-3.47c0-2.88,1.31-5.24,3-5.45A4.16,4.16,0,0,0,163.45,58.58Z" style="fill:url(#j)"/>
            <path d="M183.57,82.4l.77,1.94-4.86-.55,2.81-.81-.77-2.15,2.09-.29L183,78.76l4.16-1.46h0a13,13,0,0,1,.44,3l-2.4.09.85,2" style="fill:url(#k)"/>
        </g>
        <g style="opacity:0.62;mix-blend-mode:multiply">
            <path d="M128.06,95.24,126.53,93a2.55,2.55,0,0,1,.07-3,2.05,2.05,0,0,1-.53-.53L110.79,67.21A2,2,0,0,1,111,64.7l-4.7-6.87a1.79,1.79,0,0,1,3-2L114,62.67a2,2,0,0,1,2.42.71l15.28,22.31a1.81,1.81,0,0,1,.29.63,2.53,2.53,0,0,1,3,1l1.52,2.22a2.54,2.54,0,0,1-.66,3.54l-.57.39,10.08,14.71a1,1,0,0,1-.13,1.28l2.39,5.15a.17.17,0,0,1-.28.19l-3.82-4.14a1,1,0,0,1-1.38-.27L132,95.62l-.4.28A2.54,2.54,0,0,1,128.06,95.24Z" style="fill:url(#l)"/>
            <path d="M128.06,66.45l-1.53,2.22a2.55,2.55,0,0,0,.07,3,2.05,2.05,0,0,0-.53.53l-15.28,22.3A2,2,0,0,0,111,97l-4.7,6.87a1.79,1.79,0,0,0,3,2L114,99a2,2,0,0,0,2.42-.71L131.67,76a1.9,1.9,0,0,0,.29-.63,2.54,2.54,0,0,0,3-1l1.52-2.22a2.54,2.54,0,0,0-.66-3.54l-.57-.39L145.3,53.56a1,1,0,0,0-.13-1.28l2.39-5.15a.17.17,0,0,0-.28-.19l-3.82,4.14a1,1,0,0,0-1.38.27L132,66.07l-.4-.28A2.54,2.54,0,0,0,128.06,66.45Z" style="fill:url(#m)"/>
        </g>
        <g style="opacity:0.62;mix-blend-mode:multiply">
            <path d="M98.77,31v4q0,.15-.15.15H85.5s-.44.49-1.2,1.42a9.52,9.52,0,0,0,1.2,1.49H98.62c.1,0,.15.06.15.14v4q0,.15-.15.15H84.07q-.46-.48-4-5.75v-.07q3.59-5.29,4-5.75H98.62C98.72,30.89,98.77,30.93,98.77,31Z" style="fill:url(#n)"/>
            <path d="M98.74,49.29v.06c-2.35,3.44-3.7,5.37-4,5.77H80.18A.13.13,0,0,1,80,55v-4c0-.09,0-.14.15-.14H83.3V47.86H80.18c-.1,0-.15,0-.15-.14v-4a.13.13,0,0,1,.15-.15H94.69Q95.05,44,98.74,49.29ZM93.2,47.86H86.94v2.92h6.32s.44-.49,1.22-1.43A8.56,8.56,0,0,0,93.2,47.86Z" style="fill:url(#o)"/>
            <path d="M98.8,56.45v4.14c0,.1-.06.15-.14.15H84v1.55l1.39,2q-2,2.85-2.22,3.24H83a29,29,0,0,1-3-4.35V56.45c0-.1,0-.14.15-.14H98.66C98.76,56.32,98.8,56.37,98.8,56.45Z" style="fill:url(#p)"/>
            <path d="M98.78,68.49V72.7a.15.15,0,0,1-.16.14H87.26v3.1H98.62c.11,0,.16.07.16.16v4.13a.15.15,0,0,1-.16.14H80.18c-.1,0-.15-.05-.15-.14V76.1c0-.11,0-.16.15-.16h3.25v-3.1H80.18c-.1,0-.15,0-.15-.14V68.49c0-.1,0-.14.15-.14h8c.28,0,.67,0,1.18.07,0,0,.27-.07.81-.07h.58c.06,0,.08,0,.08.07l.15-.07h7.59C98.73,68.36,98.78,68.41,98.78,68.49Z" style="fill:url(#q)"/>
            <path d="M98.74,87.25v.06c-2.35,3.44-3.7,5.37-4,5.77H80.18a.13.13,0,0,1-.15-.15V88.88c0-.1,0-.14.15-.14H83.3V85.82H80.18c-.1,0-.15,0-.15-.14V81.63a.13.13,0,0,1,.15-.15H94.69Q95.05,81.91,98.74,87.25ZM93.2,85.82H86.94v2.92h6.32s.44-.49,1.22-1.43A8.56,8.56,0,0,0,93.2,85.82Z" style="fill:url(#r)"/>
            <path d="M98.8,94.41v4.14c0,.1-.06.15-.14.15H84v1.55l1.39,2q-2,2.85-2.22,3.24H83a29,29,0,0,1-3-4.35V94.41c0-.1,0-.14.15-.14H98.66C98.76,94.28,98.8,94.33,98.8,94.41Z" style="fill:url(#s)"/>
            <path d="M98.8,106.71v4.14c0,.1-.06.15-.14.15H84v1.55l1.39,2q-2,2.85-2.22,3.24H83a29,29,0,0,1-3-4.35v-6.73c0-.1,0-.14.15-.14H98.66C98.76,106.58,98.8,106.63,98.8,106.71Z" style="fill:url(#t)"/>
            <path d="M98.74,124.5v.06q-3.52,5.17-4,5.77H80.18c-.1,0-.15-.05-.15-.14v-4.06c0-.09,0-.14.15-.14H83.3v-2.92H80.18c-.1,0-.15,0-.15-.14v-4.05c0-.1,0-.14.15-.14H94.69Q95.05,119.16,98.74,124.5Zm-5.54-1.43H86.94V126h6.32s.44-.48,1.22-1.43A9,9,0,0,0,93.2,123.07Z" style="fill:url(#u)"/>
        </g>
    </g>
</svg>